<?xml version="1.0" standalone="no"?>
<!DOCTYPE svg PUBLIC "-//W3C//DTD SVG 20010904//EN"
 "http://www.w3.org/TR/2001/REC-SVG-20010904/DTD/svg10.dtd">
<svg version="1.0" xmlns="http://www.w3.org/2000/svg"
 width="453.000000pt" height="453.000000pt" viewBox="0 0 453.000000 453.000000"
 preserveAspectRatio="xMidYMid meet">
<metadata>
Created by potrace 1.14, written by Peter Selinger 2001-2017
</metadata>
<g transform="translate(0.000000,453.000000) scale(0.100000,-0.100000)"
fill="#000000" stroke="none">
<path d="M2130 4487 c0 -24 -3 -47 -7 -51 -5 -4 -9 -17 -10 -29 -1 -12 -7 -47
-12 -77 -6 -30 -11 -97 -12 -149 l-2 -94 -50 -60 c-50 -59 -50 -60 -37 -96 17
-47 16 -211 -2 -248 -21 -43 -94 -86 -183 -107 -103 -24 -139 -42 -130 -64 15
-34 56 -148 62 -167 10 -36 46 -115 53 -115 4 0 10 -23 13 -51 4 -28 12 -57
18 -65 13 -16 40 -18 55 -5 26 24 198 61 284 61 81 0 245 -37 277 -62 27 -22
38 -4 97 169 12 34 25 65 29 69 4 4 7 15 7 24 0 10 11 42 25 72 14 30 27 68
31 85 l6 30 -91 7 c-123 9 -187 40 -221 105 -19 37 -17 158 4 219 l18 53 -60
77 -60 77 -5 110 c-2 61 -7 121 -11 135 -6 29 -26 159 -26 178 0 7 -13 12 -30
12 -29 0 -30 -2 -30 -43z"/>
<path d="M2267 4203 c-4 -3 -7 -28 -7 -54 0 -37 6 -54 24 -74 14 -15 44 -51
67 -82 l43 -55 -25 -44 c-19 -36 -24 -59 -24 -117 1 -131 44 -170 200 -180 50
-4 102 -7 116 -7 18 0 28 -6 32 -20 3 -13 14 -20 30 -20 21 0 63 -11 107 -28
20 -7 21 -7 54 -17 16 -4 41 -14 55 -21 14 -8 32 -14 38 -14 12 0 47 -15 157
-67 28 -13 55 -23 61 -23 6 0 31 -9 54 -21 28 -13 47 -17 53 -11 23 23 -53
272 -83 272 -4 0 -11 9 -14 20 -8 25 -175 190 -192 190 -7 0 -17 9 -23 19 -20
39 -128 109 -284 185 -218 106 -251 121 -338 150 -82 28 -91 30 -101 19z"/>
<path d="M2010 4191 c-8 -5 -37 -14 -63 -20 -26 -6 -80 -26 -120 -44 -40 -19
-101 -46 -137 -61 -108 -45 -177 -87 -238 -143 -7 -7 -38 -30 -70 -52 -62 -44
-166 -161 -200 -226 -12 -22 -38 -59 -59 -82 -68 -75 -138 -243 -102 -243 8 0
68 26 134 59 150 73 177 84 245 104 132 39 167 50 202 65 20 8 35 19 33 22 -3
4 21 10 53 14 99 11 137 18 147 26 6 4 28 13 50 20 55 17 70 33 89 90 22 66
20 139 -4 194 -20 48 -22 63 -5 58 5 -2 7 -1 3 3 -4 4 13 31 38 61 44 55 56
101 38 148 -7 18 -12 19 -34 7z"/>
<path d="M574 3716 c-3 -8 10 -45 30 -81 20 -37 33 -72 29 -77 -3 -7 -1 -8 5
-4 7 4 12 3 12 -1 0 -5 38 -79 85 -164 47 -84 98 -178 112 -206 15 -29 33 -53
40 -53 28 0 113 236 113 315 0 29 -17 43 -44 38 -19 -4 -25 -15 -34 -56 -6
-29 -14 -67 -19 -86 l-8 -34 -87 144 c-144 238 -169 274 -201 277 -17 2 -29
-2 -33 -12z"/>
<path d="M3683 3692 c-12 -16 -27 -49 -33 -73 -15 -56 -196 -329 -218 -329 -5
0 -14 34 -20 77 -7 42 -17 82 -23 90 -12 14 -45 18 -53 5 -11 -19 16 -175 46
-253 41 -111 52 -127 74 -108 10 8 28 39 42 69 28 64 29 65 156 318 54 106 96
201 94 210 -5 29 -42 26 -65 -6z"/>
<path d="M1558 3496 c-37 -13 -88 -27 -114 -31 -26 -3 -54 -11 -63 -15 -9 -5
-43 -21 -76 -36 -106 -46 -229 -107 -266 -130 -86 -54 -149 -265 -131 -439 9
-86 21 -91 88 -39 42 31 83 53 219 114 103 46 307 83 459 82 52 0 65 4 98 31
43 35 44 37 22 83 -14 30 -18 32 -31 18 -9 -8 -18 -12 -21 -9 -4 3 -1 9 5 13
26 16 24 59 -5 138 -17 43 -43 115 -59 159 -17 47 -35 81 -43 82 -8 1 -45 -8
-82 -21z"/>
<path d="M2667 3501 c-13 -16 -54 -120 -77 -196 -7 -22 -19 -51 -26 -65 -7
-14 -23 -54 -35 -89 l-22 -65 24 -18 c13 -10 35 -27 47 -38 17 -14 38 -20 73
-20 28 0 82 -6 122 -14 40 -8 92 -17 117 -20 62 -7 231 -45 252 -56 10 -6 25
-10 33 -10 8 0 15 -5 15 -12 0 -6 3 -9 6 -5 8 7 73 -26 146 -75 31 -21 61 -38
67 -38 15 0 22 56 17 140 -4 74 -37 193 -76 275 -10 22 -22 50 -25 63 -5 18
-33 36 -113 73 -59 27 -124 58 -144 69 -20 11 -44 20 -53 20 -9 0 -32 8 -53
19 -116 59 -271 91 -295 62z"/>
<path d="M2075 3130 c-127 -13 -222 -60 -324 -158 -87 -85 -187 -259 -198
-344 l-6 -48 49 0 c71 0 211 -25 269 -47 28 -11 68 -32 90 -47 l40 -28 -35 7
c-19 4 -39 14 -45 22 -10 13 -134 51 -182 55 -12 1 -19 6 -17 10 4 7 -93 13
-171 11 -11 0 -23 4 -26 10 -4 5 -10 0 -14 -12 -6 -19 -9 -20 -23 -9 -9 7 -13
8 -9 2 4 -8 -18 -15 -67 -24 -63 -11 -75 -16 -90 -40 -9 -16 -16 -39 -17 -52
0 -22 -1 -22 -9 -3 -5 11 -9 32 -9 46 -1 23 7 30 50 48 28 13 57 20 65 17 8
-3 12 -1 9 4 -3 5 17 12 44 16 43 5 51 11 62 36 6 16 12 46 13 66 1 20 9 46
19 57 10 11 26 36 35 55 8 19 30 58 48 86 47 75 50 91 18 97 -79 15 -309 -21
-384 -60 -14 -7 -31 -13 -38 -13 -27 0 -178 -83 -238 -130 l-62 -50 5 -232 c2
-131 11 -273 19 -323 21 -129 21 -133 35 -315 19 -245 16 -662 -4 -776 -21
-113 -55 -208 -96 -269 -17 -25 -31 -52 -31 -59 0 -21 185 -203 270 -267 101
-75 226 -152 324 -198 93 -44 105 -48 286 -95 204 -52 249 -57 277 -34 20 16
251 22 303 7 53 -15 156 -14 175 1 7 6 17 10 21 8 18 -4 101 15 141 33 23 11
50 19 60 19 10 0 57 16 103 36 47 19 92 38 100 41 31 13 176 98 196 115 11 10
25 18 31 18 27 0 240 194 305 278 l42 54 -20 36 c-10 19 -23 40 -29 47 -20 21
-55 101 -64 146 -6 26 -15 58 -21 73 -15 41 -25 185 -25 366 1 205 14 653 21
700 7 49 10 83 22 263 8 118 15 165 27 184 13 19 16 41 13 83 -5 76 -37 118
-128 168 -39 21 -67 41 -64 44 3 3 -1 5 -8 5 -16 -2 -131 35 -138 44 -3 3 -32
10 -65 14 -33 4 -98 15 -145 26 -81 18 -210 26 -210 13 0 -3 22 -36 49 -73 50
-69 77 -122 101 -201 7 -25 17 -49 22 -54 4 -6 8 -20 8 -33 0 -28 20 -39 90
-46 66 -8 106 -44 116 -105 5 -32 2 -46 -17 -73 -84 -117 -169 -170 -289 -177
-41 -2 -107 1 -145 7 -195 33 -198 33 -223 5 -24 -28 -44 -26 -22 1 34 42 74
47 170 24 50 -12 259 -21 274 -11 6 3 22 7 35 8 14 2 31 11 38 20 6 9 16 13
22 9 6 -3 11 -1 11 4 0 6 7 11 16 11 8 0 13 3 11 8 -3 4 1 13 9 20 8 7 14 9
14 5 0 -4 8 4 17 17 9 14 23 29 30 33 7 4 13 17 13 27 0 10 5 22 10 25 23 14
-10 105 -37 105 -7 0 -13 4 -13 8 0 10 -11 11 -140 14 -58 2 -111 7 -118 11
-7 5 -18 4 -25 -1 -11 -9 -102 -22 -164 -23 -13 -1 -23 -5 -23 -10 0 -5 -11
-9 -24 -9 -13 0 -35 -9 -49 -20 -14 -11 -40 -23 -59 -27 -29 -6 -31 -5 -18 8
19 18 111 59 145 65 6 1 41 9 78 18 38 9 104 16 148 16 60 0 81 4 85 14 7 18
-47 167 -82 230 -41 74 -155 198 -214 234 -113 67 -272 98 -425 82z m205
-1002 l-63 -53 6 -830 c3 -571 8 -839 16 -858 6 -16 18 -60 26 -99 8 -39 19
-76 26 -84 20 -25 -2 -34 -83 -34 -87 0 -103 7 -26 11 32 2 50 8 54 18 9 20
11 121 3 121 -9 0 -21 62 -25 125 -2 28 -5 406 -7 840 -3 768 -3 791 16 818
11 16 25 26 33 23 8 -3 14 0 14 6 0 19 32 48 53 48 13 0 1 -15 -43 -52z"/>
<path d="M3535 2031 c-3 -5 -1 -12 5 -16 5 -3 10 1 10 9 0 18 -6 21 -15 7z"/>
<path d="M3530 1890 c0 -11 5 -20 10 -20 6 0 10 9 10 20 0 11 -4 20 -10 20 -5
0 -10 -9 -10 -20z"/>
<path d="M3530 1740 c0 -5 5 -10 10 -10 6 0 10 5 10 10 0 6 -4 10 -10 10 -5 0
-10 -4 -10 -10z"/>
<path d="M3530 1461 c0 -6 5 -13 10 -16 6 -3 10 1 10 9 0 9 -4 16 -10 16 -5 0
-10 -4 -10 -9z"/>
<path d="M3530 1179 c0 -11 5 -17 10 -14 6 3 10 13 10 21 0 8 -4 14 -10 14 -5
0 -10 -9 -10 -21z"/>
<path d="M3536 901 c-4 -7 -5 -15 -2 -18 9 -9 19 4 14 18 -4 11 -6 11 -12 0z"/>
<path d="M3530 751 c0 -6 5 -13 10 -16 6 -3 10 1 10 9 0 9 -4 16 -10 16 -5 0
-10 -4 -10 -9z"/>
</g>
</svg>
